 <!DOCTYPE svg PUBLIC "-//W3C//DTD SVG 1.1//EN" "http://www.w3.org/Graphics/SVG/1.1/DTD/svg11.dtd">
<svg id="b3549b78-fa0d-4bc7-bc79-3b31fd1be8d0" data-name="Layer 1" xmlns="http://www.w3.org/2000/svg" width="865.76" height="682.89" viewBox="0 0 865.76 682.89">
<defs>
<style xmlns="http://www.w3.org/1999/xhtml">*, ::after, ::before { box-sizing: border-box; }
img, svg { vertical-align: middle; }
</style>
<style xmlns="http://www.w3.org/1999/xhtml">*, body, html { -webkit-font-smoothing: antialiased; }
img, svg { max-width: 100%; }
</style>
</defs>
<rect x="44.6" y="37.19" width="540.37" height="477.79" fill="#d1d3d4"/>
<line x1="96.41" y1="433.78" x2="508.3" y2="433.78" fill="none" stroke="#ccc" stroke-miterlimit="10" stroke-width="3"/>
<line x1="96.41" y1="355.43" x2="508.3" y2="355.43" fill="none" stroke="#ccc" stroke-miterlimit="10" stroke-width="3"/>
<polygon points="499.4 197.53 420.01 197.84 442.99 171.27 420.01 144.72 499.09 144.72 522.03 170.81 499.4 197.53" fill="#a7a9ac"/>
<polygon points="155.81 197.53 81.63 197.84 81.63 144.72 155.5 144.72 178.44 170.81 155.81 197.53" fill="#a7a9ac"/>
<polygon points="241.74 197.53 162.34 197.84 185.33 171.27 162.34 144.72 241.42 144.72 264.37 170.81 241.74 197.53" fill="#a7a9ac"/>
<polygon points="327.56 197.53 248.16 197.84 271.14 171.27 248.16 144.72 327.24 144.72 350.19 170.81 327.56 197.53" fill="#a7a9ac"/>
<polygon points="413.98 197.53 334.58 197.84 357.56 171.27 334.58 144.72 413.66 144.72 436.61 170.81 413.98 197.53" fill="#a7a9ac"/>
<polygon points="498.9 294.87 419.51 295.19 442.49 268.62 419.51 242.06 498.59 242.06 521.54 268.15 498.9 294.87" fill="#a7a9ac"/>
<rect x="452.92" y="163.52" width="49.84" height="13.46" fill="#fff"/>
<line x1="547.1" y1="48.24" x2="576.9" y2="48.24" fill="none" stroke="#a7a9ac" stroke-miterlimit="10" stroke-width="3"/>
<line x1="547.1" y1="56.19" x2="576.9" y2="56.19" fill="none" stroke="#a7a9ac" stroke-miterlimit="10" stroke-width="3"/>
<line x1="547.1" y1="63.14" x2="576.9" y2="63.14" fill="none" stroke="#a7a9ac" stroke-miterlimit="10" stroke-width="3"/>
<rect x="568.89" y="101.77" width="16.08" height="411.35" fill="#e6e7e8"/>
<rect x="569.02" y="116.51" width="15.4" height="57.28" fill="#d1d3d4"/>
<path d="M797.89,497.45s-32.44,14.79-64,14.79c-29.2,0-61.87-14.71-61.87-14.71Z" fill="#e0e0e0"/>
<rect x="730.61" y="498.85" width="12.51" height="131.02" fill="#e0e0e0"/>
<rect x="680.78" y="624.45" width="111.03" height="7.68" fill="#e0e0e0"/>
<path d="M778.8,635.43a8.47,8.47,0,1,0,8.49-8.46h0A8.47,8.47,0,0,0,778.8,635.43Z" fill="#d1d3d4"/>
<path d="M729.46,635.43A8.48,8.48,0,1,0,738,627h0A8.48,8.48,0,0,0,729.46,635.43Z" fill="#d1d3d4"/>
<path d="M672.32,635.43a8.48,8.48,0,1,0,8.49-8.46h0A8.48,8.48,0,0,0,672.32,635.43Z" fill="#d1d3d4"/>
<rect x="733.93" y="546.01" width="17.02" height="7.04" fill="#e0e0e0"/>
<rect x="747.84" y="541.07" width="6.19" height="16.91" fill="#e0e0e0"/>
<path d="M666.46,497.45H808.13a9.41,9.41,0,0,0,9.4-9.41h0a9.4,9.4,0,0,0-9.4-9.41H666.46a9.41,9.41,0,0,0-9.41,9.41h0A9.42,9.42,0,0,0,666.46,497.45Z" fill="#d1d3d4"/>
<path d="M801.62,249.83s11.4-4.46,10.93-14.18S799,216.3,799.75,201.71c.73-13.7-18.89-54.39-46.91-40.22a38.59,38.59,0,0,0-14.08.78c-9,2.58-11.85,11.23-17.23,19.79-8.23,13.21-13.85,23.63-9.87,32.83s5.64,11.91,2.56,19.77c-4,10.25-8.15,7.28-6.8,16.24l24.42.39,2.31-6,.26,6.46,14.36-.19Z" fill="#435516" data-secondary="true"/>
<path d="M731.91,175.87c.3,3.78-2.17,7.18-4.67,10s-5.27,5.75-5.74,9.56c-.92,6.63,5.6,12.76,4.31,19.34-.69,3.52-3.57,6.37-4.07,9.93s1.44,6.79,3.69,9.41,5.09,4.76,7.19,7.59c0,0,4.23,6.88,17.23,2.4" fill="#435516" data-secondary="true"/>
<path d="M738.72,167.63l32.22,6.83a6,6,0,0,1,5.61,5.89l-.39,69.73a21.69,21.69,0,0,1-4.53,13.16l-3.08,4c-7,9-21.2,8.11-26.56-2a7.38,7.38,0,0,1-.73-1.82,14.19,14.19,0,0,1-.3-1.58l-.62-6.79c-.31-6.21-.36-12.53-.36-12.47s-13.18-1.67-16.57-18.67c-1.68-8.45-1.78-22.41-1.51-33.83C722.14,179.78,728.45,166.94,738.72,167.63Z" fill="#f9b499"/>
<path d="M740,242.56c8.06-.19,16.71-.46,23.47-4.84,0,0-6.21,10.51-23.39,9.57Z" fill="#f4a48e"/>
<path d="M789.49,177.91c-2.38-7-12-14.72-21.07-18.18a17.24,17.24,0,0,0-15.58,1.82l-11.49,7.61a15.93,15.93,0,0,0,11.06,12c2.87.83,6.45,1,8.23,3.49s.86,6.27,2.57,8.89c2.35,3.62,8.62,3.32,10.4,7.18.79,1.72.43,3.79,1.25,5.5,1.07,2.27,6.93,5.06,9.32,4.31s2.3-4.9,3-7.05a11.3,11.3,0,0,0,.2-7.59C786.26,191,791.09,182.55,789.49,177.91Z" fill="#435516" data-secondary="true"/>
<path d="M772.49,212.61c0-1.28,1.31-4.31,2.56-4.58,3.34-.65,9.41-.62,9.79,7.91.53,11.65-11.29,9.78-11.31,9.45S772.65,217,772.49,212.61Z" fill="#f9b499"/>
<path d="M697.06,300.56l-20.62,53.76-38.78,2.47-6,16.85,51.19,9.92S698.26,388,707,368.49l15-53.47Z" fill="#f4a992"/>
<path d="M600.85,365.19a2.57,2.57,0,0,0,2.47,1.44,2.61,2.61,0,0,0,.63-.13c1.44-.48,1.34-3.46,1.34-3.46l7-1.15s9.14,5.89,12.4,9.79,11.49.75,11.49.75l2.87-15-12.93-11.69s.81.69-.1-1.44-4.95-1.36-4.95-1.36c-.63-1.08-3.29-1.44-3.29-1.44l-11.33,1.31a7.76,7.76,0,0,0-5.75,3.57l-4.8,7.59s-2.54,5.47-2.12,6.75a2.28,2.28,0,0,0,2.64,1.43s.56,3.6,1.44,3.72a7.92,7.92,0,0,0,2.87-.67Z" fill="#ffbe9d"/>
<path d="M622.22,369.27a4.15,4.15,0,0,1-.67-.52l-1.9-1.52a79.44,79.44,0,0,0-7.45-5.14h.16l-7,1.19.25-.3a8.26,8.26,0,0,1-.13,1.72,3.12,3.12,0,0,1-.81,1.68,1.64,1.64,0,0,1-.93.43,2,2,0,0,1-1,0,2.86,2.86,0,0,1-1.75-1,3.19,3.19,0,0,1-.3-.42l-.07-.11h0c-.09,0,.77.29.41.14h0l-.23.09c-.28.11-.58.23-.9.33a8.36,8.36,0,0,1-1,.23,2.26,2.26,0,0,1-.52,0,1.22,1.22,0,0,1-.65-.12,2.07,2.07,0,0,1-.69-.93q-.2-.46-.36-1a19.25,19.25,0,0,1-.44-2l.42.29a2.69,2.69,0,0,1-2.63-.89,2.22,2.22,0,0,1-.48-1.44,5.64,5.64,0,0,1,.25-1.35,36.28,36.28,0,0,1,1.94-5h0c.8-1.3,1.68-2.66,2.55-4.05.55-.87,1.08-1.73,1.63-2.57a14.53,14.53,0,0,1,1.76-2.49,7.72,7.72,0,0,1,2.56-1.69,9.75,9.75,0,0,1,2.87-.61l10.7-1.19h.09a10.09,10.09,0,0,1,1.87.49,3.16,3.16,0,0,1,1.63,1.15l-.4-.13a3.93,3.93,0,0,1,3.65.2,4.61,4.61,0,0,1,1.81,2.87l-.09-.14,8.91,8,2.4,2.22a6,6,0,0,1,.8.8,5.51,5.51,0,0,1-.9-.69l-2.5-2.1L626,346h0v-.09a4.08,4.08,0,0,0-1.6-2.5,3.33,3.33,0,0,0-3.07-.13l-.25.1-.14-.23a2.77,2.77,0,0,0-1.32-.86,9.75,9.75,0,0,0-1.75-.44H618l-10.68,1.26a9.35,9.35,0,0,0-2.72.56,7.15,7.15,0,0,0-2.3,1.54,14.11,14.11,0,0,0-1.68,2.37L599,350.11l-2.56,4.05h0a39.29,39.29,0,0,0-1.89,4.94,5.44,5.44,0,0,0-.23,1.19,1.43,1.43,0,0,0,.33,1,2,2,0,0,0,1.92.64h.35v.35a15.21,15.21,0,0,0,.43,1.89,3.09,3.09,0,0,0,.73,1.52.48.48,0,0,0,.29,0h.43a6.13,6.13,0,0,0,.87-.21l.87-.3.21-.07h0l.42.15h0v.1a2,2,0,0,0,.24.33,2.29,2.29,0,0,0,1.35.77,2,2,0,0,0,.78,0,1.16,1.16,0,0,0,.63-.28,4.31,4.31,0,0,0,.78-2.87V363h.24l7-1.09h.16a67.62,67.62,0,0,1,7.36,5.34c.82.69,1.44,1.24,1.83,1.63A3.66,3.66,0,0,1,622.22,369.27Z" fill="#eb996e"/>
<path d="M619.21,346.91a14,14,0,0,1-3.64,1.07,36.3,36.3,0,0,1-9.36.68l.37-.25c-.18.56-.39,1.15-.63,1.73a28.18,28.18,0,0,1-5.74,8.93,25.74,25.74,0,0,1-2.39,2.16c-.62.46-1,.69-1,.64s1.23-1.15,3-3.16a31.39,31.39,0,0,0,5.46-8.84c.23-.58.43-1.15.61-1.69l.1-.27h.28a43.2,43.2,0,0,0,9.23-.43A37,37,0,0,1,619.21,346.91Z" fill="#eb996e"/>
<path d="M608.48,353.51a14.58,14.58,0,0,1-2.87,6.37,14.08,14.08,0,0,1-5,4.82c-.15-.17,2.24-2.15,4.39-5.25S608.23,353.44,608.48,353.51Z" fill="#eb996e"/>
<path d="M638.48,367.88a2.56,2.56,0,0,1-.36.2,7.2,7.2,0,0,1-1.12.43,12.25,12.25,0,0,1-4.46.52,12.47,12.47,0,0,1-6.44-2.33,13,13,0,0,1-4.85-7.18l.41.27a29.66,29.66,0,0,1-8.2.39c-1-.1-2-.26-3-.46a9.41,9.41,0,0,1-2.87-1,2.36,2.36,0,0,1-1.09-1.24,2.12,2.12,0,0,1,.18-1.65,2.19,2.19,0,0,1,1.28-1l1.31-.31c3.45-.84,6.59-1.44,9.24-1.86s4.79-.66,6.29-.79a13.87,13.87,0,0,1,2.32-.11,13.61,13.61,0,0,1-2.28.4c-1.44.22-3.62.55-6.25,1s-5.74,1.14-9.15,2l-1.29.34a1.26,1.26,0,0,0-.83.66,1.34,1.34,0,0,0-.13,1.07,1.6,1.6,0,0,0,.79.83,8.83,8.83,0,0,0,2.65.85,29.76,29.76,0,0,0,3,.44,29,29,0,0,0,8-.36h.33l.09.33a12.22,12.22,0,0,0,10.63,9.19,13,13,0,0,0,4.31-.3C637.43,368.13,638,368,638.48,367.88Z" fill="#eb996e"/>
<polygon points="658.46 561.29 674.99 597.11 701.67 584.79 684.56 540.45 658.46 561.29" fill="#ffbe9d"/>
<path d="M671.86,594.71l9.65,18.4S648,617,659.12,644.4l58.12-27.87-16-36.93Z" fill="#363229" data-primary="true"/>
<path d="M698.29,602a2.61,2.61,0,0,1,2.87,1.92,2.53,2.53,0,0,1-1.88,2.87,2.76,2.76,0,0,1-3.1-2,2.64,2.64,0,0,1,2.3-2.87" fill="#e0e0e0"/>
<path d="M666.42,589.93,622.84,481s1-18.67,4.4-24.49,107.23-40.14,107.23-40.14,26.44-6.37,44.07,0,36.08,12.77,34.11,25.09c-2.9,18-18.5,36.67-18.5,36.67l-76.33,2.27-41.65,15.17,28,80.29Z" fill="#435516" data-secondary="true"/>
<polygon points="627.67 515.43 626.69 554.87 656.06 555.59 660.29 508.25 627.67 515.43" fill="#ffbe9d"/>
<path d="M624.94,551.35l.53,20.8s-35.59-4.83-33.9,18.17L656,591l2-40.21Z" fill="#363229" data-primary="true"/>
<path d="M645.42,569.54a2.64,2.64,0,0,1,1.8,3,2.53,2.53,0,0,1-3,1.76,2.78,2.78,0,0,1-1.88-3.22,2.63,2.63,0,0,1,3.3-1.52" fill="#e0e0e0"/>
<path d="M644.82,405.92s-17.6-1.43-19.55,17.7-3.86,108.2-3.86,108.2l41.13,3.42,6.36-91.07,65.57-27.83S656.57,403.48,644.82,405.92Z" fill="#435516" data-secondary="true"/>
<path d="M717.35,380.16s-10.67,29.94-8.62,33.28,29.5,17.07,29.5,17.07L807,456.9s7-11.22,7-28.47-23.9-48.27-23.9-48.27Z" fill="#435516" data-secondary="true"/>
<path d="M737.75,414.74l-.33.18-1,.46-3.81,1.68-14.27,6.23L669,444.52l.22-.32c-.62,9-1.29,18.67-2,28.73-1.66,23.5-3.2,45.16-4.42,62.31v.3h-.3l-30-2.63-8.25-.76-2.17-.23c-.24,0-.49-.06-.73-.1a4.69,4.69,0,0,1,.75,0l2.17.13,8.25.6,30,2.37-.33.29c1.18-17.15,2.67-38.78,4.31-62.31.7-10,1.43-19.76,2-28.73V444l.22-.09,49.42-21,14.37-6,3.86-1.58,1-.38A1.33,1.33,0,0,1,737.75,414.74Z" fill="#3f3d56"/>
<path d="M691.91,295s12.28-20.5,15.7-24.65A27.33,27.33,0,0,1,717.67,263a20.92,20.92,0,0,1,4.78-1.44l18.12-4s-.44,12.15,12.24,12.9S776.1,253.6,776.1,253.6s20.42,3.16,25.3,5.68S814,265,818.21,286.14l3,20.71L786,310.05l-3.37,52.34-17.47,12.29s-48.42,12.59-51.5,13.42-4.13-78.05-4.13-78.05S697.06,302.08,691.91,295Z" fill="#363229" data-primary="true"/>
<path d="M716.59,371.94l66.31-14.36,3.06-47.4,29.49-2.71s-2.07,32.33-2.23,42c-.43,27.95-9.82,32.76-14.6,36.54s-85,2.07-85,2.07Z" fill="#f9b499"/>
<path d="M678.94,380.53a2.6,2.6,0,0,0,2.47,1.44,3.61,3.61,0,0,0,.65-.15c1.44-.46,1.34-3.44,1.34-3.44l7-1.15s9.13,5.89,12.38,9.79,11.49.75,11.49.75l2.87-15L704.24,361.1s.79.69-.1-1.44-5-1.36-5-1.36c-.63-1.08-3.29-1.44-3.29-1.44l-11.34,1.31a7.78,7.78,0,0,0-5.75,3.56l-4.8,7.6s-2.52,5.47-2.12,6.73a2.26,2.26,0,0,0,2.64,1.44s.56,3.6,1.51,3.72a7.34,7.34,0,0,0,2.8-.68Z" fill="#f9b499"/>
<polygon points="763.14 405.06 752 405.06 752 407.52 776.41 645.7 789.44 645.7 763.14 405.06" fill="#ccc"/>
<polygon points="763.14 405.06 752 405.06 752 407.52 776.41 645.7 789.44 645.7 763.14 405.06" opacity="0.2"/>
<polygon points="566.03 405.06 554.88 405.06 554.88 407.58 578.13 645.64 589.58 645.64 566.03 405.06" fill="#ccc"/>
<polygon points="566.03 405.06 554.88 405.06 554.88 407.58 578.13 645.64 589.58 645.64 566.03 405.06" opacity="0.2"/>
<polygon points="468.04 405.06 479.2 405.06 479.2 407.58 455.96 645.64 444.49 645.64 468.04 405.06" fill="#ccc"/>
<polygon points="629.18 405.97 618.01 405.97 618.01 408.5 641.27 645.64 652.73 645.64 629.18 405.97" fill="#ccc"/>
<path d="M559.17,323.71l87.34.7c2.87,0,5.55,1.37,6,4.17L662,392.24h45a2.63,2.63,0,1,1,0,5.25H563.38l-9.81-67.19a5.74,5.74,0,0,1,4.83-6.53A5,5,0,0,1,559.17,323.71Z" fill="#435516" data-secondary="true"/>
<path d="M612,359.79a5.47,5.47,0,1,1-5.47-5.47h0A5.47,5.47,0,0,1,612,359.79Z" fill="#fff"/>
<path d="M658.49,396.9c-.13,0-2.87-16.2-6.22-36.21s-5.87-36.25-5.74-36.28,2.87,16.19,6.22,36.21S658.61,396.88,658.49,396.9Z" opacity="0.2"/>
<polygon points="809.75 407.52 412.11 407.95 411.96 397.45 809.75 397.45 809.75 407.52" fill="#ccc"/>
<polygon points="155.32 294.87 81.14 295.19 81.14 242.06 155 242.06 177.95 268.15 155.32 294.87" fill="#a7a9ac"/>
<polygon points="241.24 294.87 161.85 295.19 184.83 268.62 161.85 242.06 240.93 242.06 263.87 268.15 241.24 294.87" fill="#a7a9ac"/>
<polygon points="327.06 294.87 247.66 295.19 270.65 268.62 247.66 242.06 326.74 242.06 349.69 268.15 327.06 294.87" fill="#a7a9ac"/>
<polygon points="413.48 294.87 334.08 295.19 357.07 268.62 334.08 242.06 413.16 242.06 436.11 268.15 413.48 294.87" fill="#a7a9ac"/>
<path d="M81.72,371.9A15.89,15.89,0,1,1,97.62,356,15.91,15.91,0,0,1,81.72,371.9Zm0-29.47A13.58,13.58,0,1,0,95.3,356,13.59,13.59,0,0,0,81.72,342.43Z" fill="#ccc"/>
<circle cx="81.72" cy="356.01" r="9.27" fill="#a7a9ac"/>
<path d="M192.06,371.9A15.89,15.89,0,1,1,208,356,15.91,15.91,0,0,1,192.06,371.9Zm0-29.47A13.58,13.58,0,1,0,205.64,356,13.59,13.59,0,0,0,192.06,342.43Z" fill="#ccc"/>
<circle cx="192.06" cy="356.01" r="9.27" fill="#a7a9ac"/>
<path d="M302.82,371.9A15.89,15.89,0,1,1,318.72,356,15.91,15.91,0,0,1,302.82,371.9Zm0-29.47A13.58,13.58,0,1,0,316.4,356,13.59,13.59,0,0,0,302.82,342.43Z" fill="#ccc"/>
<circle cx="302.82" cy="356.01" r="9.27" fill="#a7a9ac"/>
<path d="M412.09,371.9A15.89,15.89,0,1,1,428,356,15.9,15.9,0,0,1,412.09,371.9Zm0-29.47A13.58,13.58,0,1,0,425.66,356,13.59,13.59,0,0,0,412.09,342.43Z" fill="#ccc"/>
<circle cx="412.09" cy="356.01" r="9.27" fill="#a7a9ac"/>
<path d="M522.85,371.9A15.89,15.89,0,1,1,538.74,356,15.91,15.91,0,0,1,522.85,371.9Zm0-29.47A13.58,13.58,0,1,0,536.42,356,13.59,13.59,0,0,0,522.85,342.43Z" fill="#ccc"/>
<circle cx="522.85" cy="356.01" r="9.27" fill="#a7a9ac"/>
<path d="M81.72,448.64a15.9,15.9,0,1,1,15.9-15.9A15.91,15.91,0,0,1,81.72,448.64Zm0-29.47A13.58,13.58,0,1,0,95.3,432.74,13.59,13.59,0,0,0,81.72,419.17Z" fill="#ccc"/>
<circle cx="81.72" cy="432.74" r="9.27" fill="#a7a9ac"/>
<path d="M192.06,448.64a15.9,15.9,0,1,1,15.9-15.9A15.91,15.91,0,0,1,192.06,448.64Zm0-29.47a13.58,13.58,0,1,0,13.58,13.57A13.59,13.59,0,0,0,192.06,419.17Z" fill="#ccc"/>
<circle cx="192.06" cy="432.74" r="9.27" fill="#a7a9ac"/>
<path d="M302.82,448.64c-20.89-.38-20.88-31.42,0-31.79C323.71,417.22,323.71,448.27,302.82,448.64Zm0-29.47c-17.84.32-17.84,26.83,0,27.15C320.66,446,320.66,419.49,302.82,419.17Z" fill="#ccc"/>
<path d="M312.09,432.74c0,12.13-18.49,12.13-18.54,0S312,420.62,312.09,432.74Z" fill="#a7a9ac"/>
<path d="M412.09,448.64A15.9,15.9,0,1,1,428,432.74,15.91,15.91,0,0,1,412.09,448.64Zm0-29.47a13.58,13.58,0,1,0,13.57,13.57A13.59,13.59,0,0,0,412.09,419.17Z" fill="#ccc"/>
<circle cx="412.09" cy="432.74" r="9.27" fill="#ccc"/>
<path d="M522.85,448.64a15.9,15.9,0,1,1,15.89-15.9A15.91,15.91,0,0,1,522.85,448.64Zm0-29.47a13.58,13.58,0,1,0,13.57,13.57A13.59,13.59,0,0,0,522.85,419.17Z" fill="#ccc"/>
<circle cx="522.85" cy="432.74" r="9.27" fill="#ccc"/>
<rect x="97.87" y="163.52" width="49.84" height="13.46" fill="#fff"/>
<rect x="189.57" y="163.52" width="49.84" height="13.46" fill="#fff"/>
<rect x="277.28" y="163.52" width="49.84" height="13.46" fill="#fff"/>
<rect x="363.97" y="163.52" width="49.84" height="13.46" fill="#fff"/>
<path d="M117.59,276.65l-8.93-9.13a2.62,2.62,0,0,0-3.71,0h0a2.61,2.61,0,0,0,0,3.69l13.32,13.32,25.62-25.09a3.06,3.06,0,0,0,.1-4.27h0a3.06,3.06,0,0,0-4.39-.1Z" fill="#fff"/>
<path d="M206.75,276.42l-8.93-9.12a2.6,2.6,0,0,0-3.71,0h0a2.61,2.61,0,0,0,0,3.69l13.32,13.31,25.62-25.09a3.06,3.06,0,0,0,.1-4.27h0a3.06,3.06,0,0,0-4.39-.1Z" fill="#fff"/>
<path d="M292.18,276.92l-8.94-9.12a2.59,2.59,0,0,0-3.7,0h0a2.6,2.6,0,0,0,0,3.68l13.31,13.32,25.63-25.09a3.06,3.06,0,0,0,.1-4.27h0a3.06,3.06,0,0,0-4.39-.1Z" fill="#fff"/>
<rect x="45.47" y="73.07" width="541.44" height="28.81" fill="#a7a9ac"/>
<rect x="59.37" y="45.26" width="195.69" height="15.89" fill="#e6e7e8"/>
</svg>